<svg width="24" height="22" viewBox="0 0 24 22" fill="none" xmlns="http://www.w3.org/2000/svg">
    <path d="M0.5 9.24113V8.76097C0.5 7.83985 1.0696 7.2519 2.00256 7.2519H3.91759L7.67891 0.892251C7.94407 0.451289 8.41546 0.421892 8.769 0.608076C9.13237 0.804059 9.34842 1.21562 9.08326 1.68598L5.8719 7.2519H18.1281L14.9167 1.68598C14.6516 1.21562 14.8775 0.804059 15.231 0.608076C15.5944 0.431691 16.0658 0.461088 16.3211 0.892251L20.0824 7.2519H21.9876C22.9206 7.2519 23.5 7.83985 23.5 8.76097V9.24113C23.5 10.1721 22.9206 10.7404 21.9876 10.7404H2.00256C1.0696 10.7404 0.5 10.1721 0.5 9.24113ZM6.74594 21.4999C4.47737 21.4999 3.77028 20.177 3.48548 18.7561L2.13023 12.0829H21.8796L20.5145 18.7561C20.2297 20.177 19.5226 21.4999 17.2541 21.4999H6.74594ZM7.38429 19.8144C7.76729 19.7458 7.96371 19.4813 7.9146 19.1481L7.07985 14.2191C7.02092 13.8859 6.73612 13.6997 6.36294 13.7487C5.98975 13.8173 5.7737 14.0819 5.83262 14.4151L6.6772 19.3441C6.73612 19.6772 7.0111 19.8732 7.38429 19.8144ZM16.6157 19.8144C16.9791 19.8732 17.2639 19.6772 17.3228 19.3441L18.1674 14.4347C18.2263 14.1015 18.0102 13.8173 17.6371 13.7487C17.2639 13.6997 16.9791 13.8859 16.9202 14.2191L16.0854 19.1481C16.0363 19.4813 16.2327 19.7458 16.6157 19.8144ZM10.4974 19.8046C10.8608 19.785 11.1063 19.5302 11.0867 19.1873L10.7626 14.3171C10.7331 13.9741 10.4778 13.7389 10.0948 13.7683C9.73143 13.7977 9.48591 14.0427 9.50555 14.3857L9.82963 19.2559C9.84927 19.5988 10.1243 19.8242 10.4974 19.8046ZM13.5222 19.8046C13.8856 19.8242 14.1605 19.5988 14.1802 19.2559L14.5043 14.3857C14.5239 14.0427 14.2784 13.7977 13.915 13.7683C13.532 13.7389 13.2767 13.9741 13.2472 14.3171L12.9231 19.1873C12.9035 19.5302 13.149 19.785 13.5222 19.8046Z" fill="white"/>
</svg>
